HIERARCHY
ROOT Hips
{
	OFFSET	0.00	0.00	0.00
	CHANNELS 6 Xposition Yposition Zposition Zrotation Xrotation Yrotation
	JOINT LeftUpLeg
	{
		OFFSET	 0.126116	-0.014019	-0.065224
		CHANNELS 3 Zrotation Xrotation Yrotation
		JOINT LeftLeg
		{
			OFFSET	 0.000000	 0.000000	 0.569914
			CHANNELS 3 Zrotation Xrotation Yrotation
			JOINT LeftFoot
			{
				OFFSET	 0.000000	 0.000000	 0.544423
				CHANNELS 3 Zrotation Xrotation Yrotation
				JOINT LeftToeBase
				{
					OFFSET	 0.000000	 0.000000	 0.207117
					CHANNELS 3 Zrotation Xrotation Yrotation
					End Site
					{
						OFFSET	 0.000000	 0.000000	 0.207117
					}
				}
			}
		}
	}
	JOINT RightUpLeg
	{
		OFFSET	-0.124023	-0.008373	-0.065224
		CHANNELS 3 Zrotation Xrotation Yrotation
		JOINT RightLeg
		{
			OFFSET	 0.000000	 0.000000	 0.570047
			CHANNELS 3 Zrotation Xrotation Yrotation
			JOINT RightFoot
			{
				OFFSET	 0.000000	 0.000000	 0.544354
				CHANNELS 3 Zrotation Xrotation Yrotation
				JOINT RightToeBase
				{
					OFFSET	 0.000000	 0.000000	 0.207540
					CHANNELS 3 Zrotation Xrotation Yrotation
					End Site
					{
						OFFSET	 0.000000	 0.000000	 0.207540
					}
				}
			}
		}
	}
	JOINT Spine
	{
		OFFSET	 0.000184	-0.007763	 0.117403
		CHANNELS 3 Zrotation Xrotation Yrotation
		JOINT Spine1
		{
			OFFSET	 0.000000	 0.000000	 0.137269
			CHANNELS 3 Zrotation Xrotation Yrotation
			JOINT Spine2
			{
				OFFSET	 0.000000	 0.000000	 0.156879
				CHANNELS 3 Zrotation Xrotation Yrotation
				JOINT LeftShoulder
				{
					OFFSET	 0.080501	-0.002496	 0.160144
					CHANNELS 3 Zrotation Xrotation Yrotation
					JOINT LeftArm
					{
						OFFSET	 0.000000	 0.000000	 0.164363
						CHANNELS 3 Zrotation Xrotation Yrotation
						JOINT LeftForeArm
						{
							OFFSET	 0.000000	 0.000000	 0.364576
							CHANNELS 3 Zrotation Xrotation Yrotation
							JOINT LeftHand
							{
								OFFSET	 0.000000	 0.000000	 0.360812
								CHANNELS 3 Zrotation Xrotation Yrotation
								JOINT LeftHandIndex1
								{
									OFFSET	 0.000000	 0.000000	 0.086006
									CHANNELS 3 Zrotation Xrotation Yrotation
									JOINT LeftHandIndex2
									{
										OFFSET	 0.000000	 0.000000	 0.047236
										CHANNELS 3 Zrotation Xrotation Yrotation
										JOINT LeftHandIndex3
										{
											OFFSET	-0.004284	-0.000551	 0.038166
											CHANNELS 3 Zrotation Xrotation Yrotation
											End Site
											{
												OFFSET	-0.004284	-0.000551	 0.038166
											}
										}
									}
								}
							}
						}
					}
				}
				JOINT Neck
				{
					OFFSET	 0.000000	 0.000000	 0.176489
					CHANNELS 3 Zrotation Xrotation Yrotation
					JOINT Head
					{
						OFFSET	 0.000000	-0.001747	 0.077940
						CHANNELS 3 Zrotation Xrotation Yrotation
						End Site
						{
							OFFSET	 0.000000	-0.001747	 0.077940
						}
					}
				}
				JOINT RightShoulder
				{
					OFFSET	-0.080363	 0.000306	 0.159706
					CHANNELS 3 Zrotation Xrotation Yrotation
					JOINT RightArm
					{
						OFFSET	 0.000000	 0.000000	 0.164196
						CHANNELS 3 Zrotation Xrotation Yrotation
						JOINT RightForeArm
						{
							OFFSET	 0.000000	 0.000000	 0.365611
							CHANNELS 3 Zrotation Xrotation Yrotation
							JOINT RightHand
							{
								OFFSET	 0.000000	 0.000000	 0.360648
								CHANNELS 3 Zrotation Xrotation Yrotation
								JOINT RightHandIndex1
								{
									OFFSET	 0.000000	 0.000000	 0.069977
									CHANNELS 3 Zrotation Xrotation Yrotation
									JOINT RightHandIndex2
									{
										OFFSET	 0.000000	 0.000000	 0.052305
										CHANNELS 3 Zrotation Xrotation Yrotation
										JOINT RightHandIndex3
										{
											OFFSET	 0.009002	-0.000782	 0.042196
											CHANNELS 3 Zrotation Xrotation Yrotation
											End Site
											{
												OFFSET	 0.009002	-0.000782	 0.042196
											}
										}
									}
								}
							}
						}
					}
				}
			}
		}
	}
}
MOTION
Frames:    8
Frame Time: 0.03333334
-0.031606	 0.270722	 1.053824	 1.868500	 32.481210	-7.251555	 53.561820	-73.603220	-136.616100	 4.919611	-66.514080	 4.896337	 63.024840	 73.198640	-74.351460	-2.385832	 28.452790	-0.000001	 20.222060	-82.311900	-155.333600	-14.424960	-69.058880	-8.675455	-24.786600	 74.165080	 49.837070	 2.384659	 28.388700	-0.000001	-11.483490	 14.213290	 1.183831	-2.199628	 19.172800	 2.390833	-1.711251	 0.150657	 2.665858	-98.988780	 68.258740	 157.238900	 2.968246	-8.260960	-47.794360	 2.166635	-1.142140	-6.986230	-37.366580	-16.263480	-22.519750	-2.027600	 6.559038	 9.033609	-5.188889	 0.308190	 3.541030	-5.234859	 0.342567	 0.430617	 0.000107	 15.456630	-5.134231	-0.352948	-24.517040	-1.267090	 97.339630	 64.526350	-159.651700	-9.367124	 6.139936	 56.177520	-15.276500	-5.162989	 32.925200	 21.513470	-15.966120	 18.481260	 1.803333	 3.979147	-15.098590	 4.898592	 3.004813	-9.310344	 5.224449	 0.395017	 2.014677
-0.027287	 0.269514	 1.080129	 1.400355	 30.670160	-6.294835	 44.656940	-70.241460	-146.057300	 4.035422	-62.502030	 3.950707	 57.845360	 72.890500	-68.650000	-2.385832	 28.452790	-0.000001	 3.018570	-78.086690	-171.428400	-13.255550	-64.659320	-7.337938	-22.635390	 73.133040	 46.911610	 2.384659	 28.388700	-0.000001	-21.303930	 13.525440	 1.179373	-2.137420	 19.310790	 2.479759	-0.591798	-1.337815	 1.778158	-98.150710	 69.224740	 158.405700	 4.188637	-3.965452	-49.200410	 6.990182	-2.381736	-9.549266	-37.031750	-18.229750	-23.693130	-2.027600	 6.559038	 9.033609	-5.188889	 0.308190	 3.541030	-5.234859	 0.342567	 0.430617	-0.696279	 8.750307	-3.567836	 0.503672	-17.977340	-1.537059	 96.938780	 64.121830	-161.048800	-11.258440	 6.478281	 53.780030	-17.451780	-8.691051	 39.805690	 19.692510	-16.935330	 19.838060	 1.803333	 3.979147	-15.098590	 4.898592	 3.004813	-9.310344	 5.224449	 0.395017	 2.014677
-0.022574	 0.267196	 1.105866	 1.019913	 28.684820	-5.216191	 38.313510	-66.418800	-153.108200	 3.537046	-58.502900	 3.372554	 53.154330	 72.561040	-63.343050	-2.385833	 28.452760	 0.000004	-5.536224	-73.073300	-178.841000	-12.628780	-60.033680	-6.491419	-20.272660	 72.203380	 43.877860	 2.384659	 28.388700	-0.000001	-29.855750	 12.828620	 1.075135	-2.204871	 19.670600	 2.569079	 0.438210	-3.237520	 0.992643	-96.588330	 71.625730	 159.617000	 5.642245	 1.486941	-51.062220	 11.554490	-3.875017	-11.786440	-37.068700	-20.732640	-25.522040	-2.027600	 6.559038	 9.033609	-5.188889	 0.308190	 3.541030	-5.234859	 0.342567	 0.430617	-1.130630	 0.640243	-2.331088	 1.308592	-10.217560	-1.993414	 96.227040	 65.087390	-162.088100	-13.297930	 8.892302	 52.062500	-19.453780	-13.042710	 46.151310	 18.023890	-18.722070	 20.752210	 1.803333	 3.979147	-15.098590	 4.898592	 3.004813	-9.310344	 5.224449	 0.395017	 2.014677
-0.018366	 0.263663	 1.131981	 0.794107	 26.371540	-4.135562	 33.194000	-61.992530	-158.998000	 3.495209	-54.245160	 3.176166	 47.857270	 72.152700	-57.552440	-2.385833	 28.452750	 0.000004	-10.681650	-67.287540	 177.280300	-11.650390	-55.035710	-5.337706	-18.617870	 71.290220	 41.237660	 2.384659	 28.388700	-0.000001	-36.686230	 12.223780	 1.005805	-2.238722	 20.052450	 2.526832	 1.400883	-5.367574	 0.441146	-94.104450	 75.448880	 160.667600	 7.567821	 7.848776	-54.042090	 15.928960	-5.553845	-13.729340	-37.195780	-23.901510	-27.403190	-2.027600	 6.559038	 9.033609	-5.188889	 0.308190	 3.541030	-5.234859	 0.342567	 0.430617	-1.483029	-8.522232	-2.357014	 2.278129	-1.498806	-1.855123	 94.966190	 67.543170	-163.358300	-15.603510	 12.774990	 51.792080	-20.733170	-17.778630	 52.131660	 16.782340	-21.922430	 21.508650	 1.803333	 3.979147	-15.098590	 4.898592	 3.004813	-9.310344	 5.224449	 0.395017	 2.014677
-0.015343	 0.257712	 1.156004	 1.090944	 24.397040	-3.399871	 29.708560	-57.685630	-162.953500	 3.569197	-49.997960	 3.044885	 42.647630	 71.554920	-51.811480	-2.385833	 28.452750	 0.000004	-13.777750	-61.836450	 175.582600	-9.998896	-50.172000	-3.730323	-17.071340	 70.342700	 38.221440	 2.384659	 28.388700	-0.000001	-40.747190	 11.280550	 0.781781	-2.299480	 20.218010	 2.343356	 2.192977	-7.443190	-0.034308	-93.488660	 76.110540	 162.315100	 9.554991	 11.195900	-55.810770	 19.676620	-7.137046	-15.213130	-36.169880	-26.798180	-29.089500	-2.027600	 6.559038	 9.033609	-5.188889	 0.308190	 3.541030	-5.234859	 0.342567	 0.430617	-1.669164	-13.852280	-1.727930	 3.060674	 3.537434	-2.280506	 94.047000	 69.193240	-164.517300	-17.674080	 15.990490	 50.693040	-20.969800	-22.113220	 57.618020	 15.362170	-25.017460	 21.665890	 1.803333	 3.979147	-15.098590	 4.898592	 3.004813	-9.310344	 5.224449	 0.395017	 2.014677
-0.013121	 0.248531	 1.181515	 1.729620	 22.474520	-2.751265	 26.719720	-52.774400	-166.309800	 3.527297	-45.022950	 2.792036	 36.864190	 70.642640	-45.287310	-2.385833	 28.452750	 0.000004	-16.355350	-55.780560	 174.715500	-8.303414	-44.574040	-2.216912	-15.051030	 69.052600	 34.459060	 2.384659	 28.388700	-0.000001	-42.449320	 9.726689	 0.498636	-2.300093	 19.828620	 2.051817	 2.862726	-9.562036	-0.431427	-94.285960	 74.189950	 164.451500	 11.727570	 12.373980	-55.999620	 23.322680	-8.744758	-16.474880	-33.752680	-29.787930	-29.711880	-2.027600	 6.559038	 9.033609	-5.188889	 0.308190	 3.541030	-5.234859	 0.342567	 0.430617	-1.764869	-15.099530	-0.985214	 3.844743	 4.895043	-2.562955	 93.957730	 67.990690	-166.172300	-19.598800	 17.524630	 47.965460	-20.225220	-26.411580	 63.500310	 13.082350	-27.767110	 21.369530	 1.803333	 3.979147	-15.098590	 4.898592	 3.004813	-9.310344	 5.224449	 0.395017	 2.014677
-0.012630	 0.238278	 1.202845	 2.352252	 20.544940	-1.865687	 24.232370	-48.102200	-169.453500	 3.439332	-40.673340	 2.515229	 31.583580	 69.795390	-39.132360	-2.385833	 28.452750	 0.000004	-18.568140	-49.731990	 174.040500	-6.818266	-39.425820	-1.062021	-13.680480	 68.160010	 31.291220	 2.384659	 28.388700	-0.000001	-41.288620	 8.146361	 0.219122	-2.172594	 19.191430	 1.614345	 3.308199	-11.490350	-0.689034	-94.771480	 72.154050	 166.424300	 13.842030	 12.843690	-55.976080	 26.533250	-10.146890	-17.415190	-30.420840	-32.816070	-28.250900	-2.027600	 6.559038	 9.033609	-5.188889	 0.308190	 3.541030	-5.234859	 0.342567	 0.430617	-1.847606	-15.141720	-0.727369	 4.448198	 5.399449	-2.512764	 93.971040	 65.290690	-168.204600	-21.479390	 17.896040	 46.418880	-19.550200	-29.823290	 67.504750	 10.305870	-30.214930	 20.424640	 1.803333	 3.979147	-15.098590	 4.898592	 3.004813	-9.310344	 5.224449	 0.395017	 2.014677
-0.012501	 0.225629	 1.221336	 2.904205	 18.026570	-0.840571	 22.312220	-42.733850	-172.540800	 3.214414	-36.385510	 2.155809	 27.248490	 69.290410	-33.597980	-2.385833	 28.452750	 0.000004	-20.213040	-42.970170	 173.899000	-5.254262	-34.301840	-0.060854	-12.556840	 67.751240	 28.090360	 2.384659	 28.388700	-0.000001	-36.913660	 6.624229	-0.084283	-2.162094	 17.916260	 0.981724	 3.641601	-12.579630	-0.758351	-94.771380	 70.738950	 168.350600	 15.539760	 13.543690	-56.288480	 29.314440	-11.268590	-18.078230	-26.584350	-35.756140	-25.739230	-2.027600	 6.559038	 9.033609	-5.188889	 0.308190	 3.541030	-5.234859	 0.342567	 0.430617	-1.871998	-14.221800	-0.638640	 4.790626	 5.302325	-2.533727	 93.577390	 64.184560	-169.884500	-23.475350	 19.581050	 45.841590	-18.910240	-32.809260	 70.817570	 7.446067	-33.124930	 19.137210	 1.803333	 3.979147	-15.098590	 4.898592	 3.004813	-9.310344	 5.224449	 0.395017	 2.014677
